<?xml version="1.0" encoding="UTF-8"?>
<svg xmlns="http://www.w3.org/2000/svg" version="1.1" viewBox="0 0 960 723.01">
  <!-- Generator: Adobe Illustrator 29.6.1, SVG Export Plug-In . SVG Version: 2.1.1 Build 9)  -->
  <g id="words">
    <line x1="211.07" y1="648.88" x2="211.07" y2="654.88" fill="none" stroke="#000"/>
    <line x1="293.57" y1="648.88" x2="293.57" y2="654.88" fill="none" stroke="#000"/>
    <line x1="376.07" y1="648.88" x2="376.07" y2="654.88" fill="none" stroke="#000"/>
    <line x1="458.57" y1="648.88" x2="458.57" y2="654.88" fill="none" stroke="#000"/>
    <line x1="541.07" y1="648.88" x2="541.07" y2="654.88" fill="none" stroke="#000"/>
    <line x1="623.57" y1="648.88" x2="623.57" y2="654.88" fill="none" stroke="#000"/>
    <line x1="706.07" y1="648.88" x2="706.07" y2="654.88" fill="none" stroke="#000"/>
    <line x1="788.57" y1="648.88" x2="788.57" y2="654.88" fill="none" stroke="#000"/>
    <line x1="871.07" y1="648.88" x2="871.07" y2="654.88" fill="none" stroke="#000"/>
    <text transform="translate(522.07 431.11)" font-family="Times-Bold, Times" font-size="12" font-weight="700" isolation="isolate"><tspan x="0" y="0">Complaint Numbers</tspan></text>
    <line x1="210.57" y1="199.28" x2="204.57" y2="199.28" fill="none" stroke="#000"/>
    <line x1="210.57" y1="299.08" x2="204.57" y2="299.08" fill="none" stroke="#000"/>
    <line x1="210.57" y1="398.88" x2="204.57" y2="398.88" fill="none" stroke="#000"/>
    <line x1="210.57" y1="498.68" x2="204.57" y2="498.68" fill="none" stroke="#000"/>
    <line x1="210.57" y1="598.48" x2="204.57" y2="598.48" fill="none" stroke="#000"/>
    <text transform="translate(99.69 161.28)" font-family="Times-Bold, Times" font-size="12" font-weight="700" isolation="isolate"><tspan x="0" y="0">Business Name</tspan></text>
    <text transform="translate(210.32 666.99)" font-family="Times-Roman, Times" font-size="12" isolation="isolate"><tspan x="0" y="0">0</tspan></text>
    <text transform="translate(291.89 666.99)" font-family="Times-Roman, Times" font-size="12" isolation="isolate"><tspan x="0" y="0">50</tspan></text>
    <text transform="translate(373.46 666.99)" font-family="Times-Roman, Times" font-size="12" isolation="isolate"><tspan x="0" y="0">100</tspan></text>
    <text transform="translate(455.04 666.99)" font-family="Times-Roman, Times" font-size="12" isolation="isolate"><tspan x="0" y="0">150</tspan></text>
    <text transform="translate(536.61 666.99)" font-family="Times-Roman, Times" font-size="12" isolation="isolate"><tspan x="0" y="0">200</tspan></text>
    <text transform="translate(618.18 666.99)" font-family="Times-Roman, Times" font-size="12" isolation="isolate"><tspan x="0" y="0">250</tspan></text>
    <text transform="translate(699.76 666.99)" font-family="Times-Roman, Times" font-size="12" isolation="isolate"><tspan x="0" y="0">300</tspan></text>
    <text transform="translate(781.33 666.99)" font-family="Times-Roman, Times" font-size="12" isolation="isolate"><tspan x="0" y="0">350</tspan></text>
    <text transform="translate(862.91 666.99)" font-family="Times-Roman, Times" font-size="12" isolation="isolate"><tspan x="0" y="0">400</tspan></text>
    <text transform="translate(69.94 194.8)" font-family="Times-Roman, Times" font-size="12" isolation="isolate"><tspan x="0" y="0">NYC Soft Ice Cream Truck </tspan><tspan x="0" y="14.4">owned by Eddie Cumart</tspan></text>
    <text transform="translate(46.28 297.61)" font-family="Times-Roman, Times" font-size="12" isolation="isolate"><tspan x="0" y="0">Rosario Family Best Cigars LLC</tspan></text>
    <text transform="translate(66.63 397.41)" font-family="Times-Roman, Times" font-size="12" isolation="isolate"><tspan x="0" y="0">Ben &amp;Nino Auto Repair Inc.</tspan></text>
    <text transform="translate(6.97 497.21)" font-family="Times-Roman, Times" font-size="12" isolation="isolate"><tspan x="0" y="0">Memorial Sloan Kettering Cancer Center</tspan></text>
    <text transform="translate(181.6 602.97)" font-family="Times-Roman, Times" font-size="12" isolation="isolate"><tspan x="0" y="0">CVS</tspan></text>
    <text transform="translate(207.57 701.64)" font-family="Times-Roman, Times" font-size="12"><tspan x="0" y="0">Note:</tspan><tspan x="26.66" y="0" letter-spacing=".03em"> </tspan><tspan x="30.06" y="0">This</tspan><tspan x="51.39" y="0" letter-spacing=".03em"> </tspan><tspan x="54.79" y="0">chart</tspan><tspan x="78.77" y="0" letter-spacing=".03em"> </tspan><tspan x="82.16" y="0">excludes</tspan><tspan x="124.15" y="0" letter-spacing=".03em"> </tspan><tspan x="127.54" y="0">complaints</tspan><tspan x="180.2" y="0" letter-spacing=".03em"> </tspan><tspan x="183.6" y="0">where</tspan><tspan x="212.91" y="0" letter-spacing=".03em"> </tspan><tspan x="216.31" y="0">the</tspan><tspan x="230.97" y="0" letter-spacing=".03em"> </tspan><tspan x="234.36" y="0">business</tspan><tspan x="275.03" y="0" letter-spacing=".03em"> </tspan><tspan x="278.43" y="0">name</tspan><tspan x="304.41" y="0" letter-spacing=".03em"> </tspan><tspan x="307.81" y="0">was</tspan><tspan x="326.47" y="0" letter-spacing=".03em"> </tspan><tspan x="329.87" y="0">listed</tspan><tspan x="355.86" y="0" letter-spacing=".03em"> </tspan><tspan x="359.26" y="0">as</tspan><tspan x="369.26" y="0" letter-spacing=".03em"> </tspan><tspan x="372.65" y="0">“none”</tspan><tspan x="406.63" y="0" letter-spacing=".03em"> </tspan><tspan x="410.03" y="0">or</tspan><tspan x="420.02" y="0" letter-spacing=".03em"> </tspan><tspan x="423.42" y="0">“unknown.”</tspan><tspan x="481.74" y="0" letter-spacing=".03em"> </tspan><tspan x="485.13" y="0">Source: </tspan><tspan x="0" y="14.4">DCWP Consumer Complaints By:Grace Jiang</tspan></text>
    <text transform="translate(66.83 57.76)" font-family="Times-Bold, Times" font-size="18" font-weight="700"><tspan x="0" y="0">NYC soft ice cream truck owned by Eddie Cumart draws most complaints in past two years</tspan></text>
    <text transform="translate(62.9 89.59)" font-family="Times-BoldItalic, Times" font-size="14" font-style="italic" font-weight="700"><tspan fill="#a9a9a9"><tspan x="0" y="0">Top</tspan><tspan x="22.55" y="0" letter-spacing="-.04em"> </tspan><tspan x="25.5" y="0">five</tspan><tspan x="46.48" y="0" letter-spacing="-.04em"> </tspan><tspan x="49.43" y="0">businesses</tspan><tspan x="110.12" y="0" letter-spacing="-.04em"> </tspan><tspan x="113.07" y="0">by</tspan><tspan x="126.28" y="0" letter-spacing="-.04em"> </tspan><tspan x="129.23" y="0">consumer</tspan><tspan x="186.02" y="0" letter-spacing="-.04em"> </tspan><tspan x="188.97" y="0">complaints</tspan><tspan x="251.98" y="0" letter-spacing="-.04em"> </tspan><tspan x="254.93" y="0">submitted</tspan><tspan x="310.93" y="0" letter-spacing="-.04em"> </tspan><tspan x="313.88" y="0">to</tspan><tspan x="324.77" y="0" letter-spacing="-.04em"> </tspan><tspan x="327.73" y="0">the</tspan><tspan x="345.61" y="0" letter-spacing="-.04em"> </tspan><tspan x="348.57" y="0">NYC</tspan><tspan x="376.57" y="0" letter-spacing="-.04em"> </tspan><tspan x="379.52" y="0">Department</tspan><tspan x="447.96" y="0" letter-spacing="-.04em"> </tspan><tspan x="450.91" y="0">of</tspan><tspan x="462.57" y="0" letter-spacing="-.04em"> </tspan><tspan x="465.52" y="0">Consumer</tspan><tspan x="525.43" y="0" letter-spacing="-.04em"> </tspan><tspan x="528.38" y="0">and</tspan><tspan x="550.17" y="0" letter-spacing="-.04em"> </tspan><tspan x="553.12" y="0">Worker</tspan><tspan x="596.68" y="0" letter-spacing="-.04em"> </tspan><tspan x="599.63" y="0">Protection</tspan><tspan x="659.51" y="0" letter-spacing="-.04em"> </tspan><tspan x="662.46" y="0">from</tspan><tspan x="690.46" y="0" letter-spacing="-.04em"> </tspan><tspan x="693.42" y="0">July </tspan></tspan><tspan x="0" y="16.8" fill="#a9a9a9">2023</tspan><tspan x="28" y="16.8" fill="#a9a9a9" letter-spacing=".02em"> </tspan><tspan x="31.85" y="16.8" fill="#a9a9a9">to</tspan><tspan x="42.74" y="16.8" fill="#a9a9a9" letter-spacing=".02em"> </tspan><tspan x="46.58" y="16.8" fill="#a9a9a9">April</tspan><tspan x="76.15" y="16.8" fill="#a9a9a9" letter-spacing=".02em"> </tspan><tspan x="79.99" y="16.8" fill="#a9a9a9">2025.</tspan><tspan x="111.49" y="16.8" fill="#a9a9a9" letter-spacing=".02em"> </tspan><tspan x="115.34" y="16.8" fill="#ff7f0a">Eddie</tspan><tspan x="148.78" y="16.8" fill="#ff7f0a" letter-spacing=".02em"> </tspan><tspan x="152.63" y="16.8" fill="#ff7f0a">Cumart’s</tspan><tspan x="207.09" y="16.8" fill="#ff7f0a" letter-spacing=".02em"> </tspan><tspan x="210.94" y="16.8" fill="#ff7f0a">ice</tspan><tspan x="227.25" y="16.8" fill="#ff7f0a" letter-spacing=".02em"> </tspan><tspan x="231.1" y="16.8" fill="#ff7f0a">cream</tspan><tspan x="266.87" y="16.8" fill="#ff7f0a" letter-spacing=".02em"> </tspan><tspan x="270.71" y="16.8" fill="#ff7f0a">truck</tspan><tspan x="301.05" y="16.8" fill="#a9a9a9" letter-spacing=".02em"> </tspan><tspan x="304.9" y="16.8" fill="#a9a9a9">received</tspan><tspan x="352.31" y="16.8" fill="#a9a9a9" letter-spacing=".02em"> </tspan><tspan x="356.15" y="16.8" fill="#a9a9a9">three</tspan><tspan x="385.7" y="16.8" fill="#a9a9a9" letter-spacing=".02em"> </tspan><tspan x="389.55" y="16.8" fill="#a9a9a9">times</tspan><tspan x="419.88" y="16.8" fill="#a9a9a9" letter-spacing=".02em"> </tspan><tspan x="423.73" y="16.8" fill="#a9a9a9">more</tspan><tspan x="453.28" y="16.8" fill="#a9a9a9" letter-spacing=".02em"> </tspan><tspan x="457.13" y="16.8" fill="#a9a9a9">complaints</tspan><tspan x="520.13" y="16.8" fill="#a9a9a9" letter-spacing=".02em"> </tspan><tspan x="523.98" y="16.8" fill="#a9a9a9">than</tspan><tspan x="550.44" y="16.8" fill="#a9a9a9" letter-spacing=".02em"> </tspan><tspan x="554.29" y="16.8" fill="#a9a9a9">the</tspan><tspan x="572.18" y="16.8" fill="#a9a9a9" letter-spacing=".02em"> </tspan><tspan x="576.02" y="16.8" fill="#a9a9a9">second-most</tspan><tspan x="647.58" y="16.8" fill="#a9a9a9" letter-spacing=".02em"> </tspan><tspan x="651.42" y="16.8" fill="#a9a9a9">complained </tspan><tspan fill="#a9a9a9"><tspan x="0" y="33.6">about business.</tspan></tspan></text>
    <text transform="translate(816.17 207.81)" font-family="Times-Bold, Times" font-size="18" font-weight="700"><tspan x="0" y="0">361</tspan></text>
    <text transform="translate(391 304.39)" font-family="Times-Bold, Times" font-size="18" font-weight="700"><tspan x="0" y="0">102</tspan></text>
  </g>
  <g id="axis">
    <path d="M211.07,654.88v-5.5h660v5.5" fill="none" stroke="#000" stroke-width="2"/>
    <path d="M210.32,149.38v500" fill="none" stroke="#000" stroke-width="2"/>
  </g>
  <g id="bar">
    <rect id="undefined_-_NYC_Soft_Ice_Cream_Truck_owned_by_Eddie_Cumart" x="211.32" y="161.28" width="595.65" height="75" fill="#ff7f0a"/>
    <rect id="undefined_-_Rosario_Family_Best_Cigars_LLC" x="211.32" y="261.58" width="168.3" height="75" fill="#ffbd35"/>
    <rect id="undefined_-_Ben__x26_Nino_Auto_Repair_Inc." x="211.32" y="361.38" width="136.95" height="75" fill="#ffbd35"/>
    <rect id="undefined_-_Memorial_Sloan_Kettering_Cancer_Center" x="211.32" y="473.89" width="133.65" height="75" fill="#ffbd35"/>
    <rect id="undefined_-_CVS" x="211.32" y="573.53" width="127.05" height="75" fill="#ffbd35"/>
  </g>
</svg>