<?xml version="1.0" encoding="UTF-8"?>
<svg id="Layer_1" data-name="Layer 1" xmlns="http://www.w3.org/2000/svg" viewBox="0 0 873.94 678.57">
  <defs>
    <style>
      .cls-1 {
        font-family: Times-Roman, Times;
      }

      .cls-1, .cls-2, .cls-3, .cls-4, .cls-5, .cls-6, .cls-7, .cls-8, .cls-9, .cls-10, .cls-11, .cls-12, .cls-13 {
        isolation: isolate;
      }

      .cls-1, .cls-3, .cls-8 {
        font-size: 12px;
      }

      .cls-14 {
        stroke-width: 2px;
      }

      .cls-14, .cls-15 {
        fill: none;
        stroke: #000;
      }

      .cls-2 {
        font-size: 21px;
      }

      .cls-2, .cls-4, .cls-6, .cls-7, .cls-9, .cls-10, .cls-11, .cls-12, .cls-13 {
        font-weight: 700;
      }

      .cls-2, .cls-10, .cls-11 {
        font-family: NYTCheltenham-Bold, NYTCheltenham;
      }

      .cls-3 {
        letter-spacing: .03em;
      }

      .cls-3, .cls-8 {
        font-family: NYTCheltenham-Book, NYTCheltenham;
      }

      .cls-16 {
        fill: #ffbd35;
      }

      .cls-4, .cls-17, .cls-13 {
        fill: #ff7f0a;
      }

      .cls-4, .cls-6, .cls-7, .cls-9, .cls-10, .cls-13 {
        font-size: 14px;
      }

      .cls-4, .cls-6, .cls-7, .cls-9, .cls-13 {
        font-family: NYTCheltenham-BoldItalic, NYTCheltenham;
        font-style: italic;
      }

      .cls-4, .cls-9 {
        letter-spacing: .02em;
      }

      .cls-6, .cls-7, .cls-9 {
        fill: #a9a9a9;
      }

      .cls-18 {
        letter-spacing: 0em;
      }

      .cls-19 {
        letter-spacing: 0em;
      }

      .cls-20 {
        letter-spacing: 0em;
      }

      .cls-21 {
        letter-spacing: 0em;
      }

      .cls-22 {
        letter-spacing: 0em;
      }

      .cls-7 {
        letter-spacing: -.04em;
      }

      .cls-23 {
        letter-spacing: -.09em;
      }

      .cls-24 {
        letter-spacing: -.07em;
      }

      .cls-25 {
        letter-spacing: -.08em;
      }

      .cls-26 {
        letter-spacing: -.09em;
      }

      .cls-27 {
        letter-spacing: -.13em;
      }

      .cls-28 {
        letter-spacing: -.11em;
      }

      .cls-29 {
        letter-spacing: -.02em;
      }

      .cls-30 {
        letter-spacing: -.02em;
      }

      .cls-31 {
        letter-spacing: -.02em;
      }

      .cls-32 {
        letter-spacing: -.02em;
      }

      .cls-33 {
        letter-spacing: -.01em;
      }

      .cls-34 {
        letter-spacing: -.01em;
      }

      .cls-35 {
        letter-spacing: -.01em;
      }

      .cls-36 {
        letter-spacing: -.05em;
      }

      .cls-37 {
        letter-spacing: -.05em;
      }

      .cls-38 {
        letter-spacing: -.04em;
      }

      .cls-39 {
        letter-spacing: -.03em;
      }

      .cls-40 {
        letter-spacing: 0em;
      }

      .cls-41 {
        letter-spacing: 0em;
      }

      .cls-42 {
        letter-spacing: 0em;
      }

      .cls-43 {
        letter-spacing: 0em;
      }

      .cls-44 {
        letter-spacing: 0em;
      }

      .cls-45 {
        letter-spacing: 0em;
      }

      .cls-46 {
        letter-spacing: 0em;
      }

      .cls-47 {
        letter-spacing: 0em;
      }

      .cls-48 {
        letter-spacing: 0em;
      }

      .cls-49 {
        letter-spacing: 0em;
      }

      .cls-50 {
        letter-spacing: 0em;
      }

      .cls-51 {
        letter-spacing: -.01em;
      }

      .cls-52 {
        letter-spacing: 0em;
      }

      .cls-53 {
        letter-spacing: 0em;
      }

      .cls-11 {
        font-size: 14.88px;
      }

      .cls-12 {
        font-family: Times-Bold, Times;
        font-size: 18px;
      }

      .cls-54 {
        letter-spacing: .02em;
      }

      .cls-55 {
        letter-spacing: .01em;
      }

      .cls-56 {
        letter-spacing: .01em;
      }

      .cls-57 {
        letter-spacing: 0em;
      }
    </style>
  </defs>
  <g id="words">
    <line class="cls-15" x1="204.1" y1="608.97" x2="204.1" y2="614.97"/>
    <line class="cls-15" x1="286.6" y1="608.97" x2="286.6" y2="614.97"/>
    <line class="cls-15" x1="369.1" y1="608.97" x2="369.1" y2="614.97"/>
    <line class="cls-15" x1="451.6" y1="608.97" x2="451.6" y2="614.97"/>
    <line class="cls-15" x1="534.1" y1="608.97" x2="534.1" y2="614.97"/>
    <line class="cls-15" x1="616.6" y1="608.97" x2="616.6" y2="614.97"/>
    <line class="cls-15" x1="699.1" y1="608.97" x2="699.1" y2="614.97"/>
    <line class="cls-15" x1="781.6" y1="608.97" x2="781.6" y2="614.97"/>
    <line class="cls-15" x1="864.1" y1="608.97" x2="864.1" y2="614.97"/>
    <g class="cls-5">
      <text class="cls-10" transform="translate(651.99 234.94)"><tspan x="0" y="0">Complaint Numbers</tspan></text>
    </g>
    <line class="cls-15" x1="203.6" y1="159.37" x2="197.6" y2="159.37"/>
    <line class="cls-15" x1="203.6" y1="259.17" x2="197.6" y2="259.17"/>
    <line class="cls-15" x1="203.6" y1="358.97" x2="197.6" y2="358.97"/>
    <line class="cls-15" x1="203.6" y1="458.77" x2="197.6" y2="458.77"/>
    <line class="cls-15" x1="203.6" y1="558.57" x2="197.6" y2="558.57"/>
    <g class="cls-5">
      <text class="cls-11" transform="translate(59.71 610.04)"><tspan x="0" y="0">Busine</tspan><tspan class="cls-44" x="41.16" y="0">s</tspan><tspan x="46.39" y="0">s Name</tspan></text>
    </g>
    <g class="cls-5">
      <text class="cls-1" transform="translate(203.35 627.08)"><tspan x="0" y="0">0</tspan></text>
    </g>
    <g class="cls-5">
      <text class="cls-1" transform="translate(284.92 627.08)"><tspan x="0" y="0">50</tspan></text>
    </g>
    <g class="cls-5">
      <text class="cls-1" transform="translate(366.49 627.08)"><tspan x="0" y="0">100</tspan></text>
    </g>
    <g class="cls-5">
      <text class="cls-1" transform="translate(448.07 627.08)"><tspan x="0" y="0">150</tspan></text>
    </g>
    <g class="cls-5">
      <text class="cls-1" transform="translate(529.64 627.08)"><tspan x="0" y="0">200</tspan></text>
    </g>
    <g class="cls-5">
      <text class="cls-1" transform="translate(611.21 627.08)"><tspan x="0" y="0">250</tspan></text>
    </g>
    <g class="cls-5">
      <text class="cls-1" transform="translate(692.79 627.08)"><tspan x="0" y="0">300</tspan></text>
    </g>
    <g class="cls-5">
      <text class="cls-1" transform="translate(774.36 627.08)"><tspan x="0" y="0">350</tspan></text>
    </g>
    <g class="cls-5">
      <text class="cls-1" transform="translate(855.94 627.08)"><tspan x="0" y="0">400</tspan></text>
    </g>
    <g class="cls-5">
      <text class="cls-8" transform="translate(62.97 154.89)"><tspan x="0" y="0">N</tspan><tspan class="cls-51" x="8.41" y="0">Y</tspan><tspan x="15.64" y="0">C </tspan><tspan class="cls-56" x="25.44" y="0">S</tspan><tspan x="32.09" y="0">oft Ice Cream</tspan><tspan class="cls-29" x="94.14" y="0"> </tspan><tspan class="cls-28" x="96.32" y="0">T</tspan><tspan x="102.14" y="0">ruck </tspan></text>
      <text class="cls-8" transform="translate(62.97 169.29)"><tspan x="0" y="0">owned by Eddie </tspan><tspan class="cls-46" x="76.98" y="0">C</tspan><tspan class="cls-19" x="84.3" y="0">umart</tspan></text>
    </g>
    <g class="cls-5">
      <text class="cls-8" transform="translate(39.31 257.7)"><tspan class="cls-35" x="0" y="0">R</tspan><tspan x="7.5" y="0">osario </tspan><tspan class="cls-24" x="38.23" y="0">F</tspan><tspan x="43.96" y="0">amily </tspan><tspan class="cls-57" x="72.41" y="0">B</tspan><tspan x="79.8" y="0">est Cigars L</tspan><tspan class="cls-32" x="134.25" y="0">L</tspan><tspan x="140.78" y="0">C</tspan></text>
    </g>
    <g class="cls-5">
      <text class="cls-8" transform="translate(59.66 357.5)"><tspan class="cls-57" x="0" y="0">B</tspan><tspan class="cls-21" x="7.39" y="0">en &amp;Nino</tspan><tspan class="cls-38" x="53.51" y="0"> </tspan><tspan class="cls-32" x="55.45" y="0">A</tspan><tspan x="63.31" y="0">u</tspan><tspan class="cls-50" x="69.54" y="0">t</tspan><tspan x="72.88" y="0">o </tspan><tspan class="cls-35" x="80.93" y="0">R</tspan><tspan x="88.43" y="0">epair Inc.</tspan></text>
    </g>
    <g class="cls-5">
      <text class="cls-8" transform="translate(0 457.3)"><tspan x="0" y="0">Memorial Sloan </tspan><tspan class="cls-34" x="77.31" y="0">K</tspan><tspan class="cls-19" x="84.87" y="0">e</tspan><tspan class="cls-41" x="90.03" y="0">t</tspan><tspan class="cls-50" x="93.35" y="0">t</tspan><tspan class="cls-19" x="96.68" y="0">ering Cancer Cen</tspan><tspan class="cls-50" x="177.31" y="0">t</tspan><tspan x="180.65" y="0">er</tspan></text>
    </g>
    <g class="cls-5">
      <text class="cls-8" transform="translate(174.63 563.06)"><tspan x="0" y="0">CVS</tspan></text>
    </g>
    <g class="cls-5">
      <text class="cls-8" transform="translate(200.6 661.73)"><tspan x="0" y="0">No</tspan><tspan class="cls-50" x="14.04" y="0">t</tspan><tspan class="cls-19" x="17.38" y="0">e:</tspan></text>
      <text class="cls-3" transform="translate(227.26 661.73)"><tspan x="0" y="0"> </tspan></text>
      <text class="cls-8" transform="translate(230.66 661.73)"><tspan x="0" y="0">This</tspan></text>
      <text class="cls-3" transform="translate(251.99 661.73)"><tspan x="0" y="0"> </tspan></text>
      <text class="cls-8" transform="translate(255.39 661.73)"><tspan x="0" y="0">chart</tspan></text>
      <text class="cls-3" transform="translate(279.37 661.73)"><tspan x="0" y="0"> </tspan></text>
      <text class="cls-8" transform="translate(282.76 661.73)"><tspan x="0" y="0">excludes</tspan></text>
      <text class="cls-3" transform="translate(324.75 661.73)"><tspan x="0" y="0"> </tspan></text>
      <text class="cls-8" transform="translate(328.14 661.73)"><tspan x="0" y="0">complaints</tspan></text>
      <text class="cls-3" transform="translate(380.8 661.73)"><tspan x="0" y="0"> </tspan></text>
      <text class="cls-8" transform="translate(384.2 661.73)"><tspan x="0" y="0">where</tspan></text>
      <text class="cls-3" transform="translate(413.51 661.73)"><tspan x="0" y="0"> </tspan></text>
      <text class="cls-8" transform="translate(416.91 661.73)"><tspan x="0" y="0">the</tspan></text>
      <text class="cls-3" transform="translate(431.57 661.73)"><tspan x="0" y="0"> </tspan></text>
      <text class="cls-8" transform="translate(434.96 661.73)"><tspan x="0" y="0">busine</tspan><tspan class="cls-45" x="31.21" y="0">s</tspan><tspan x="35.74" y="0">s</tspan></text>
      <text class="cls-3" transform="translate(475.63 661.73)"><tspan x="0" y="0"> </tspan></text>
      <text class="cls-8" transform="translate(479.03 661.73)"><tspan x="0" y="0">name</tspan></text>
      <text class="cls-3" transform="translate(505.01 661.73)"><tspan x="0" y="0"> </tspan></text>
      <text class="cls-8" transform="translate(508.41 661.73)"><tspan class="cls-42" x="0" y="0">w</tspan><tspan x="8.02" y="0">as</tspan></text>
      <text class="cls-3" transform="translate(527.07 661.73)"><tspan x="0" y="0"> </tspan></text>
      <text class="cls-8" transform="translate(530.47 661.73)"><tspan x="0" y="0">lis</tspan><tspan class="cls-50" x="10.43" y="0">t</tspan><tspan x="13.76" y="0">ed</tspan></text>
      <text class="cls-3" transform="translate(556.46 661.73)"><tspan x="0" y="0"> </tspan></text>
      <text class="cls-8" transform="translate(559.86 661.73)"><tspan x="0" y="0">as</tspan></text>
      <text class="cls-3" transform="translate(569.86 661.73)"><tspan x="0" y="0"> </tspan></text>
      <text class="cls-8" transform="translate(573.25 661.73)"><tspan x="0" y="0">“non</tspan><tspan class="cls-39" x="22.91" y="0">e</tspan><tspan class="cls-37" x="27.65" y="0">”</tspan></text>
      <text class="cls-3" transform="translate(607.23 661.73)"><tspan x="0" y="0"> </tspan></text>
      <text class="cls-8" transform="translate(610.63 661.73)"><tspan x="0" y="0">or</tspan></text>
      <text class="cls-3" transform="translate(620.62 661.73)"><tspan x="0" y="0"> </tspan></text>
      <text class="cls-8" transform="translate(624.02 661.73)"><tspan class="cls-29" x="0" y="0">“</tspan><tspan x="4.42" y="0">unknown</tspan><tspan class="cls-23" x="48.97" y="0">.</tspan><tspan class="cls-36" x="50.65" y="0">”</tspan></text>
      <text class="cls-3" transform="translate(682.34 661.73)"><tspan x="0" y="0"> </tspan></text>
      <text class="cls-8" transform="translate(200.6 676.13)"><tspan class="cls-54" x="0" y="0">S</tspan><tspan x="6.65" y="0">ource: DCW</tspan><tspan class="cls-31" x="65.36" y="0">P</tspan><tspan x="71.87" y="0" xml:space="preserve"> Consumer Complaints   By: Grace Jiang</tspan></text>
      <text/>
    </g>
    <g class="cls-5">
      <text class="cls-2" transform="translate(59.86 17.85)"><tspan x="0" y="0">N</tspan><tspan class="cls-52" x="14.89" y="0">Y</tspan><tspan class="cls-18" x="27.66" y="0">C soft ice cream truck owned by Eddie </tspan><tspan class="cls-47" x="350.21" y="0">C</tspan><tspan class="cls-18" x="363" y="0">umart draws most complaints in past two years</tspan></text>
    </g>
    <g class="cls-5">
      <text class="cls-6" transform="translate(59.04 54.84)"><tspan class="cls-27" x="0" y="0">T</tspan><tspan class="cls-22" x="6.58" y="0">op</tspan></text>
      <text class="cls-7" transform="translate(81.59 54.84)"><tspan x="0" y="0"> </tspan></text>
      <text class="cls-6" transform="translate(84.54 54.84)"><tspan class="cls-55" x="0" y="0">f</tspan><tspan x="4.33" y="0">ive</tspan></text>
      <text class="cls-7" transform="translate(105.52 54.84)"><tspan x="0" y="0"> </tspan></text>
      <text class="cls-6" transform="translate(108.47 54.84)"><tspan x="0" y="0">busine</tspan><tspan class="cls-43" x="35.06" y="0">s</tspan><tspan x="39.93" y="0">ses</tspan></text>
      <text class="cls-7" transform="translate(169.16 54.84)"><tspan x="0" y="0"> </tspan></text>
      <text class="cls-6" transform="translate(172.11 54.84)"><tspan x="0" y="0">by</tspan></text>
      <text class="cls-7" transform="translate(185.32 54.84)"><tspan x="0" y="0"> </tspan></text>
      <text class="cls-6" transform="translate(188.27 54.84)"><tspan x="0" y="0">consumer</tspan></text>
      <text class="cls-7" transform="translate(245.06 54.84)"><tspan x="0" y="0"> </tspan></text>
      <text class="cls-6" transform="translate(248.01 54.84)"><tspan x="0" y="0">complaints</tspan></text>
      <text class="cls-7" transform="translate(311.02 54.84)"><tspan x="0" y="0"> </tspan></text>
      <text class="cls-6" transform="translate(313.97 54.84)"><tspan x="0" y="0">submi</tspan><tspan class="cls-40" x="32.72" y="0">t</tspan><tspan class="cls-49" x="36.67" y="0">t</tspan><tspan x="40.64" y="0">ed</tspan></text>
      <text class="cls-7" transform="translate(369.97 54.84)"><tspan x="0" y="0"> </tspan></text>
      <text class="cls-6" transform="translate(372.92 54.84)"><tspan class="cls-49" x="0" y="0">t</tspan><tspan x="3.98" y="0">o</tspan></text>
      <text class="cls-7" transform="translate(383.81 54.84)"><tspan x="0" y="0"> </tspan></text>
      <text class="cls-6" transform="translate(386.77 54.84)"><tspan x="0" y="0">the</tspan></text>
      <text class="cls-7" transform="translate(404.65 54.84)"><tspan x="0" y="0"> </tspan></text>
      <text class="cls-6" transform="translate(407.61 54.84)"><tspan x="0" y="0">N</tspan><tspan class="cls-31" x="9.41" y="0">Y</tspan><tspan x="17.82" y="0">C</tspan></text>
      <text class="cls-7" transform="translate(435.61 54.84)"><tspan x="0" y="0"> </tspan></text>
      <text class="cls-6" transform="translate(438.56 54.84)"><tspan x="0" y="0">Department</tspan></text>
      <text class="cls-7" transform="translate(507 54.84)"><tspan x="0" y="0"> </tspan></text>
      <text class="cls-6" transform="translate(509.95 54.84)"><tspan x="0" y="0">of</tspan></text>
      <text class="cls-7" transform="translate(521.61 54.84)"><tspan x="0" y="0"> </tspan></text>
      <text class="cls-6" transform="translate(524.56 54.84)"><tspan class="cls-51" x="0" y="0">C</tspan><tspan x="8.27" y="0">onsumer</tspan></text>
      <text class="cls-7" transform="translate(584.47 54.84)"><tspan x="0" y="0"> </tspan></text>
      <text class="cls-6" transform="translate(587.42 54.84)"><tspan x="0" y="0">and</tspan></text>
      <text class="cls-7" transform="translate(609.21 54.84)"><tspan x="0" y="0"> </tspan></text>
      <text class="cls-6" transform="translate(612.16 54.84)"><tspan class="cls-26" x="0" y="0">W</tspan><tspan x="12" y="0">orker</tspan></text>
      <text class="cls-7" transform="translate(655.72 54.84)"><tspan x="0" y="0"> </tspan></text>
      <text class="cls-6" transform="translate(658.67 54.84)"><tspan class="cls-53" x="0" y="0">P</tspan><tspan class="cls-22" x="7.88" y="0">ro</tspan><tspan class="cls-48" x="19.08" y="0">t</tspan><tspan class="cls-22" x="23.06" y="0">ection</tspan></text>
      <text class="cls-7" transform="translate(718.55 54.84)"><tspan x="0" y="0"> </tspan></text>
      <text class="cls-6" transform="translate(721.5 54.84)"><tspan x="0" y="0">from</tspan></text>
      <text class="cls-7" transform="translate(749.5 54.84)"><tspan x="0" y="0"> </tspan></text>
      <text class="cls-6" transform="translate(752.46 54.84)"><tspan class="cls-51" x="0" y="0">J</tspan><tspan x="5.99" y="0">uly </tspan></text>
      <text class="cls-6" transform="translate(59.04 71.64)"><tspan x="0" y="0">2023</tspan></text>
      <text class="cls-9" transform="translate(87.04 71.64)"><tspan x="0" y="0"> </tspan></text>
      <text class="cls-6" transform="translate(90.89 71.64)"><tspan class="cls-49" x="0" y="0">t</tspan><tspan x="3.98" y="0">o</tspan></text>
      <text class="cls-9" transform="translate(101.78 71.64)"><tspan x="0" y="0"> </tspan></text>
      <text class="cls-6" transform="translate(105.62 71.64)"><tspan class="cls-33" x="0" y="0">A</tspan><tspan x="9.03" y="0">pril</tspan></text>
      <text class="cls-9" transform="translate(135.19 71.64)"><tspan x="0" y="0"> </tspan></text>
      <text class="cls-6" transform="translate(139.03 71.64)"><tspan x="0" y="0">2025.</tspan></text>
      <text class="cls-9" transform="translate(170.53 71.64)"><tspan x="0" y="0"> </tspan></text>
      <text class="cls-13" transform="translate(174.38 71.64)"><tspan x="0" y="0">Eddie</tspan></text>
      <text class="cls-4" transform="translate(207.82 71.64)"><tspan x="0" y="0"> </tspan></text>
      <text class="cls-13" transform="translate(211.67 71.64)"><tspan class="cls-33" x="0" y="0">C</tspan><tspan class="cls-20" x="8.2" y="0">umar</tspan><tspan class="cls-30" x="37.48" y="0">t</tspan><tspan class="cls-25" x="41.23" y="0">’</tspan><tspan x="43.78" y="0">s</tspan></text>
      <text class="cls-4" transform="translate(266.13 71.64)"><tspan x="0" y="0"> </tspan></text>
      <text class="cls-13" transform="translate(269.98 71.64)"><tspan x="0" y="0">ice</tspan></text>
      <text class="cls-4" transform="translate(286.29 71.64)"><tspan x="0" y="0"> </tspan></text>
      <text class="cls-13" transform="translate(290.14 71.64)"><tspan x="0" y="0">cream</tspan></text>
      <text class="cls-4" transform="translate(325.91 71.64)"><tspan x="0" y="0"> </tspan></text>
      <text class="cls-13" transform="translate(329.75 71.64)"><tspan x="0" y="0">truck</tspan></text>
      <text class="cls-9" transform="translate(360.09 71.64)"><tspan x="0" y="0"> </tspan></text>
      <text class="cls-6" transform="translate(363.94 71.64)"><tspan x="0" y="0">received</tspan></text>
      <text class="cls-9" transform="translate(411.35 71.64)"><tspan x="0" y="0"> </tspan></text>
      <text class="cls-6" transform="translate(415.19 71.64)"><tspan x="0" y="0">three</tspan></text>
      <text class="cls-9" transform="translate(444.74 71.64)"><tspan x="0" y="0"> </tspan></text>
      <text class="cls-6" transform="translate(448.59 71.64)"><tspan x="0" y="0">times</tspan></text>
      <text class="cls-9" transform="translate(478.92 71.64)"><tspan x="0" y="0"> </tspan></text>
      <text class="cls-6" transform="translate(482.77 71.64)"><tspan x="0" y="0">more</tspan></text>
      <text class="cls-9" transform="translate(512.32 71.64)"><tspan x="0" y="0"> </tspan></text>
      <text class="cls-6" transform="translate(516.17 71.64)"><tspan x="0" y="0">complaints</tspan></text>
      <text class="cls-9" transform="translate(579.17 71.64)"><tspan x="0" y="0"> </tspan></text>
      <text class="cls-6" transform="translate(583.02 71.64)"><tspan x="0" y="0">than</tspan></text>
      <text class="cls-9" transform="translate(609.48 71.64)"><tspan x="0" y="0"> </tspan></text>
      <text class="cls-6" transform="translate(613.33 71.64)"><tspan x="0" y="0">the</tspan></text>
      <text class="cls-9" transform="translate(631.22 71.64)"><tspan x="0" y="0"> </tspan></text>
      <text class="cls-6" transform="translate(635.06 71.64)"><tspan x="0" y="0">second-most</tspan></text>
      <text class="cls-9" transform="translate(706.62 71.64)"><tspan x="0" y="0"> </tspan></text>
      <text class="cls-6" transform="translate(710.46 71.64)"><tspan x="0" y="0">complained </tspan></text>
      <text class="cls-6" transform="translate(59.04 88.44)"><tspan x="0" y="0">about busine</tspan><tspan class="cls-43" x="69.12" y="0">s</tspan><tspan class="cls-22" x="73.99" y="0">s.</tspan></text>
    </g>
    <g class="cls-5">
      <text class="cls-12" transform="translate(809.2 167.9)"><tspan x="0" y="0">361</tspan></text>
    </g>
    <g class="cls-5">
      <text class="cls-12" transform="translate(384.03 264.48)"><tspan x="0" y="0">102</tspan></text>
    </g>
  </g>
  <g id="axis">
    <path class="cls-14" d="M204.1,614.97v-5.5h660v5.5"/>
    <path class="cls-14" d="M203.35,109.47v500"/>
  </g>
  <g id="bar">
    <rect id="undefined_-_NYC_Soft_Ice_Cream_Truck_owned_by_Eddie_Cumart" data-name="undefined - NYC Soft Ice Cream Truck owned by Eddie Cumart" class="cls-17" x="204.35" y="121.37" width="595.65" height="75"/>
    <rect id="undefined_-_Rosario_Family_Best_Cigars_LLC" data-name="undefined - Rosario Family Best Cigars LLC" class="cls-16" x="204.35" y="221.67" width="168.3" height="75"/>
    <rect id="undefined_-_Ben_Nino_Auto_Repair_Inc." data-name="undefined - Ben &amp;amp;Nino Auto Repair Inc." class="cls-16" x="204.35" y="321.47" width="136.95" height="75"/>
    <rect id="undefined_-_Memorial_Sloan_Kettering_Cancer_Center" data-name="undefined - Memorial Sloan Kettering Cancer Center" class="cls-16" x="204.35" y="433.98" width="133.65" height="75"/>
    <rect id="undefined_-_CVS" data-name="undefined - CVS" class="cls-16" x="204.35" y="533.62" width="127.05" height="75"/>
  </g>
</svg>